<svg xmlns="http://www.w3.org/2000/svg" width="16" height="16" viewBox="0 0 24 24">
  <circle cx="12" cy="12" r="12" fill="#53FFAB"/>
  <path fill="#202733" d="M12 1.5C6.201 1.5 1.5 6.201 1.5 12C1.5 17.799 6.201 22.5 12 22.5C17.799 22.5 22.5 17.799 22.5 12C22.5 6.201 17.799 1.5 12 1.5ZM12 21C6.756 21 3 16.799 3 12C3 6.756 6.756 3 12 3C16.799 3 21 6.756 21 12C21 16.799 16.799 21 12 21ZM12 10.5C12.8284 10.5 13.5 11.1716 13.5 12C13.5 12.8284 12.8284 13.5 12 13.5C11.1716 13.5 10.5 12.8284 10.5 12C10.5 11.1716 11.1716 10.5 12 10.5ZM16.5 7.5C17.3284 7.5 18 8.17157 18 9C18 9.82843 17.3284 10.5 16.5 10.5C15.6716 10.5 15 9.82843 15 9C15 8.17157 15.6716 7.5 16.5 7.5ZM7.5 7.5C8.32843 7.5 9 8.17157 9 9C9 9.82843 8.32843 10.5 7.5 10.5C6.67157 10.5 6 9.82843 6 9C6 8.17157 6.67157 7.5 7.5 7.5ZM16.5 15C17.3284 15 18 15.6716 18 16.5C18 17.3284 17.3284 18 16.5 18C15.6716 18 15 17.3284 15 16.5C15 15.6716 15.6716 15 16.5 15ZM7.5 15C8.32843 15 9 15.6716 9 16.5C9 17.3284 8.32843 18 7.5 18C6.67157 18 6 17.3284 6 16.5C6 15.6716 6.67157 15 7.5 15Z"/>
</svg>